<svg width="279" height="56" viewBox="0 0 279 56" fill="none" xmlns="http://www.w3.org/2000/svg">
<path d="M24.4284 5.28254C27.7571 4.89285 30.26 6.82664 29.8514 8.58455C29.6179 9.58907 28.7764 10.19 27.1166 9.93737C24.7762 9.58121 23.9355 9.45327 22.3797 10.3746C20.5132 11.4799 20.0485 12.6829 19.1733 14.3404C17.9374 16.681 17.5986 18.6347 17.5837 19.3191C16.4498 15.6602 17.4195 11.7573 18.368 9.76407C19.3166 7.77087 21.3267 5.64565 24.4284 5.28254Z" fill="white"></path>
<path fill-rule="evenodd" clip-rule="evenodd" d="M12.0998 21.5652C9.55555 25.1997 12.0092 29.7855 15.4924 30.9465C17.0501 31.4658 19.9368 31.6325 24.0423 29.8731C25.3076 29.3308 26.3848 28.6295 27.4065 27.9644C29.6999 26.4716 31.7135 25.1608 34.9463 26.2384C39.6195 27.7961 39.6196 31.632 39.6196 34.5816C39.6196 37.8656 43.2313 41.102 47.263 39.1794C50.776 37.5042 51.5474 37.7456 52.026 37.8954C52.0967 37.9175 52.161 37.9376 52.2267 37.9492C52.738 38.0398 53.3066 41.1235 51.32 43.4083C49.3334 45.6931 42.1687 52.3854 31.0696 52.2354C16.0116 52.032 8.02044 41.9528 5.10746 34.5816L5.08285 34.5193C4.04847 31.9027 2.00429 26.7315 3.5497 19.0043C5.10745 11.2155 7.12574 10.3262 9.26142 10.1771C14.696 10.6609 14.2807 18.4498 12.0998 21.5652ZM26.6035 43.7945C24.3355 44.1212 22.2139 44.4268 18.1993 41.9005C16.5462 40.8602 15.7624 39.1184 15.1092 37.6668C14.4433 36.187 13.9131 35.0087 12.7358 35.1825C10.4037 35.5269 12.7555 41.7671 15.7403 43.9841C18.5691 46.0852 21.0704 45.8214 22.9643 45.6217C23.0688 45.6107 23.1714 45.5999 23.2722 45.5897C24.8136 45.4333 28.336 44.1693 29.2045 43.5646C28.2551 43.5566 27.4198 43.6769 26.6035 43.7945Z" fill="white"></path>
<ellipse cx="14.5077" cy="4.17649" rx="2.07696" ry="2.07696" transform="rotate(10.0427 14.5077 4.17649)" fill="white"></ellipse>
<path d="M107.1 10.85C107.867 10.85 108.6 11.15 109.3 11.75C110 12.3167 110.35 13.1 110.35 14.1C110.35 14.4 110.3 14.7333 110.2 15.1L100.35 44.1C100.15 44.7 99.7833 45.1667 99.25 45.5C98.75 45.8 98.2167 45.9667 97.65 46C97.0833 46 96.5167 45.8333 95.95 45.5C95.4167 45.1667 95 44.6833 94.7 44.05L87.3 27.25L87.75 27.55L80.45 44.05C80.15 44.6833 79.7167 45.1667 79.15 45.5C78.6167 45.8333 78.0667 46 77.5 46C76.9667 45.9667 76.4333 45.8 75.9 45.5C75.3667 45.1667 75 44.7 74.8 44.1L64.95 15.1C64.85 14.7333 64.8 14.4 64.8 14.1C64.8 13.1 65.15 12.3167 65.85 11.75C66.5833 11.15 67.3333 10.85 68.1 10.85C68.7333 10.85 69.3167 11.0167 69.85 11.35C70.4167 11.6833 70.8 12.1667 71 12.8L78.95 36.9L77.85 36.85L84.95 19.8C85.2167 19.2 85.6 18.7333 86.1 18.4C86.6 18.0333 87.1667 17.8667 87.8 17.9C88.4333 17.8667 89 18.0333 89.5 18.4C90 18.7333 90.3667 19.2 90.6 19.8L97.1 36.1L96.3 36.6L104.15 12.8C104.35 12.1667 104.733 11.6833 105.3 11.35C105.867 11.0167 106.467 10.85 107.1 10.85ZM120.068 42.95C120.068 43.8167 119.785 44.55 119.218 45.15C118.651 45.7167 117.935 46 117.068 46C116.201 46 115.485 45.7167 114.918 45.15C114.351 44.55 114.068 43.8167 114.068 42.95V22.3C114.068 21.4333 114.351 20.7167 114.918 20.15C115.485 19.55 116.201 19.25 117.068 19.25C117.935 19.25 118.651 19.55 119.218 20.15C119.785 20.7167 120.068 21.4333 120.068 22.3V42.95ZM117.018 16C115.885 16 115.085 15.8167 114.618 15.45C114.151 15.0833 113.918 14.4333 113.918 13.5V12.55C113.918 11.5833 114.168 10.9333 114.668 10.6C115.201 10.2333 116.001 10.05 117.068 10.05C118.235 10.05 119.051 10.2333 119.518 10.6C119.985 10.9667 120.218 11.6167 120.218 12.55V13.5C120.218 14.4667 119.968 15.1333 119.468 15.5C118.968 15.8333 118.151 16 117.018 16ZM140.534 18.75C143.001 18.75 144.868 19.2667 146.134 20.3C147.434 21.3333 148.318 22.7167 148.784 24.45C149.284 26.15 149.534 28.05 149.534 30.15V42.95C149.534 43.8167 149.251 44.55 148.684 45.15C148.118 45.7167 147.401 46 146.534 46C145.668 46 144.951 45.7167 144.384 45.15C143.818 44.55 143.534 43.8167 143.534 42.95V30.15C143.534 29.05 143.384 28.0667 143.084 27.2C142.818 26.3 142.318 25.5833 141.584 25.05C140.851 24.5167 139.801 24.25 138.434 24.25C137.101 24.25 135.968 24.5167 135.034 25.05C134.134 25.5833 133.434 26.3 132.934 27.2C132.468 28.0667 132.234 29.05 132.234 30.15V42.95C132.234 43.8167 131.951 44.55 131.384 45.15C130.818 45.7167 130.101 46 129.234 46C128.368 46 127.651 45.7167 127.084 45.15C126.518 44.55 126.234 43.8167 126.234 42.95V22.3C126.234 21.4333 126.518 20.7167 127.084 20.15C127.651 19.55 128.368 19.25 129.234 19.25C130.101 19.25 130.818 19.55 131.384 20.15C131.951 20.7167 132.234 21.4333 132.234 22.3V24.45L131.484 24.3C131.784 23.7333 132.218 23.1333 132.784 22.5C133.351 21.8333 134.018 21.2167 134.784 20.65C135.551 20.0833 136.418 19.6333 137.384 19.3C138.351 18.9333 139.401 18.75 140.534 18.75ZM168.62 46.5C165.786 46.5 163.32 45.9167 161.22 44.75C159.153 43.55 157.553 41.9333 156.42 39.9C155.32 37.8667 154.77 35.5667 154.77 33C154.77 30 155.37 27.45 156.57 25.35C157.803 23.2167 159.403 21.5833 161.37 20.45C163.336 19.3167 165.42 18.75 167.62 18.75C169.32 18.75 170.92 19.1 172.42 19.8C173.953 20.5 175.303 21.4667 176.47 22.7C177.636 23.9 178.553 25.3 179.22 26.9C179.92 28.5 180.27 30.2 180.27 32C180.236 32.8 179.92 33.45 179.32 33.95C178.72 34.45 178.02 34.7 177.22 34.7H158.12L156.62 29.7H174.97L173.87 30.7V29.35C173.803 28.3833 173.453 27.5167 172.82 26.75C172.22 25.9833 171.453 25.3833 170.52 24.95C169.62 24.4833 168.653 24.25 167.62 24.25C166.62 24.25 165.686 24.3833 164.82 24.65C163.953 24.9167 163.203 25.3667 162.57 26C161.936 26.6333 161.436 27.4833 161.07 28.55C160.703 29.6167 160.52 30.9667 160.52 32.6C160.52 34.4 160.886 35.9333 161.62 37.2C162.386 38.4333 163.353 39.3833 164.52 40.05C165.72 40.6833 166.986 41 168.32 41C169.553 41 170.536 40.9 171.27 40.7C172.003 40.5 172.586 40.2667 173.02 40C173.486 39.7 173.903 39.45 174.27 39.25C174.87 38.95 175.436 38.8 175.97 38.8C176.703 38.8 177.303 39.05 177.77 39.55C178.27 40.05 178.52 40.6333 178.52 41.3C178.52 42.2 178.053 43.0167 177.12 43.75C176.253 44.4833 175.036 45.1333 173.47 45.7C171.903 46.2333 170.286 46.5 168.62 46.5ZM214.475 11C216.209 11 217.825 11.5 219.325 12.5C220.859 13.5 222.092 14.85 223.025 16.55C223.959 18.25 224.425 20.15 224.425 22.25C224.425 24.3167 223.959 26.2 223.025 27.9C222.092 29.6 220.859 30.9667 219.325 32C217.825 33 216.209 33.5 214.475 33.5H205.275L205.775 32.6V42.95C205.775 43.8167 205.509 44.55 204.975 45.15C204.442 45.7167 203.742 46 202.875 46C202.042 46 201.359 45.7167 200.825 45.15C200.292 44.55 200.025 43.8167 200.025 42.95V14.05C200.025 13.1833 200.309 12.4667 200.875 11.9C201.475 11.3 202.209 11 203.075 11H214.475ZM214.475 27.8C215.109 27.8 215.725 27.5333 216.325 27C216.925 26.4667 217.425 25.7833 217.825 24.95C218.225 24.0833 218.425 23.1833 218.425 22.25C218.425 21.2833 218.225 20.3833 217.825 19.55C217.425 18.7167 216.925 18.05 216.325 17.55C215.725 17.0167 215.109 16.75 214.475 16.75H205.175L205.775 15.85V28.6L205.225 27.8H214.475ZM232.652 46C231.786 46 231.069 45.7167 230.502 45.15C229.936 44.55 229.652 43.8167 229.652 42.95V22.3C229.652 21.4333 229.936 20.7167 230.502 20.15C231.069 19.55 231.786 19.25 232.652 19.25C233.519 19.25 234.236 19.55 234.802 20.15C235.369 20.7167 235.652 21.4333 235.652 22.3V27L235.302 23.65C235.669 22.85 236.136 22.15 236.702 21.55C237.302 20.9167 237.969 20.4 238.702 20C239.436 19.5667 240.219 19.25 241.052 19.05C241.886 18.85 242.719 18.75 243.552 18.75C244.552 18.75 245.386 19.0333 246.052 19.6C246.752 20.1667 247.102 20.8333 247.102 21.6C247.102 22.7 246.819 23.5 246.252 24C245.686 24.4667 245.069 24.7 244.402 24.7C243.769 24.7 243.186 24.5833 242.652 24.35C242.152 24.1167 241.569 24 240.902 24C240.302 24 239.686 24.15 239.052 24.45C238.452 24.7167 237.886 25.15 237.352 25.75C236.852 26.35 236.436 27.1 236.102 28C235.802 28.8667 235.652 29.9 235.652 31.1V42.95C235.652 43.8167 235.369 44.55 234.802 45.15C234.236 45.7167 233.519 46 232.652 46ZM276.159 32.65C276.159 35.3833 275.542 37.8 274.309 39.9C273.109 41.9667 271.476 43.5833 269.409 44.75C267.376 45.9167 265.092 46.5 262.559 46.5C260.026 46.5 257.726 45.9167 255.659 44.75C253.626 43.5833 251.992 41.9667 250.759 39.9C249.559 37.8 248.959 35.3833 248.959 32.65C248.959 29.9167 249.559 27.5167 250.759 25.45C251.992 23.35 253.626 21.7167 255.659 20.55C257.726 19.35 260.026 18.75 262.559 18.75C265.092 18.75 267.376 19.35 269.409 20.55C271.476 21.7167 273.109 23.35 274.309 25.45C275.542 27.5167 276.159 29.9167 276.159 32.65ZM270.159 32.65C270.159 30.95 269.809 29.4833 269.109 28.25C268.442 26.9833 267.526 26 266.359 25.3C265.226 24.6 263.959 24.25 262.559 24.25C261.159 24.25 259.876 24.6 258.709 25.3C257.576 26 256.659 26.9833 255.959 28.25C255.292 29.4833 254.959 30.95 254.959 32.65C254.959 34.3167 255.292 35.7833 255.959 37.05C256.659 38.2833 257.576 39.25 258.709 39.95C259.876 40.65 261.159 41 262.559 41C263.959 41 265.226 40.65 266.359 39.95C267.526 39.25 268.442 38.2833 269.109 37.05C269.809 35.7833 270.159 34.3167 270.159 32.65Z" fill="white"></path>
</svg>