<svg width="40" height="40" viewBox="0 0 40 40" fill="none" xmlns="http://www.w3.org/2000/svg">
<path d="M17.4489 3.77325C19.8266 3.49489 21.6144 4.87617 21.3225 6.13182C21.1557 6.84934 20.5547 7.27855 19.3691 7.09812C17.6973 6.84372 17.0969 6.75234 15.9856 7.41041C14.6524 8.19994 14.3205 9.05922 13.6953 10.2432C12.8125 11.915 12.5705 13.3105 12.5598 13.7993C11.75 11.1858 12.4425 8.39805 13.1201 6.97434C13.7976 5.55062 15.2334 4.03261 17.4489 3.77325Z" fill="white"></path>
<path fill-rule="evenodd" clip-rule="evenodd" d="M8.64292 15.4037C6.8256 17.9998 8.57819 21.2753 11.0662 22.1047C12.1788 22.4756 14.2408 22.5947 17.1732 21.3379C18.077 20.9506 18.8465 20.4497 19.5763 19.9746C21.2144 18.9083 22.6527 17.972 24.9619 18.7417C28.2998 19.8544 28.2999 22.5943 28.2999 24.7011C28.2999 27.0468 30.8797 29.3586 33.7595 27.9853C36.2688 26.7887 36.8198 26.9611 37.1616 27.0681C37.2121 27.0839 37.258 27.0983 37.305 27.1066C37.6702 27.1713 38.0763 29.374 36.6573 31.0059C35.2383 32.6379 30.1207 37.4181 22.1928 37.311C11.4371 37.1657 5.7291 29.9662 3.64839 24.7011L3.63082 24.6567C2.89197 22.7876 1.43185 19.0939 2.53571 13.5745C3.64839 8.01104 5.09002 7.37584 6.61551 7.26934C10.4973 7.6149 10.2007 13.1784 8.64292 15.4037ZM19.0027 31.2818C17.3827 31.5151 15.8673 31.7334 12.9997 29.9289C11.8189 29.1859 11.2591 27.9417 10.7925 26.9049C10.3169 25.8478 9.93816 25.0062 9.09722 25.1304C7.43141 25.3764 9.11129 29.8337 11.2433 31.4172C13.2638 32.918 15.0505 32.7296 16.4032 32.5869C16.4779 32.5791 16.5512 32.5713 16.6232 32.564C17.7242 32.4524 20.2402 31.5495 20.8606 31.1176C20.1824 31.1119 19.5858 31.1978 19.0027 31.2818Z" fill="white"></path>
<ellipse cx="10.3628" cy="2.98319" rx="1.48355" ry="1.48355" transform="rotate(10.0427 10.3628 2.98319)" fill="white"></ellipse>
</svg>